<svg xmlns="http://www.w3.org/2000/svg" style="display: none;"><symbol id="startup-1" viewBox="0 0 512 512"><title>startup-1</title><g> <g> <path d="M307.452,84.64c-1.214-33.607-18.468-64.496-46.689-83.204c-2.888-1.914-6.64-1.914-9.528,0 c-28.221,18.708-45.474,49.597-46.688,83.204c-9.13,9.199-34.985,40.743-34.985,102.962c0,3.488,2.101,6.632,5.323,7.967 c1.067,0.442,2.187,0.657,3.297,0.657c2.244,0,4.45-0.876,6.101-2.526c20.977-20.976,70.456-16.894,70.948-16.851l0.002-0.021 c0.255,0.023,0.51,0.055,0.766,0.055c0.255,0,0.51-0.032,0.766-0.055l0.002,0.021c0.125-0.01,12.739-1.103,28.138,0.599 c13.623,1.506,32.108,5.549,42.81,16.252c1.651,1.65,3.856,2.526,6.101,2.526c1.111,0,2.231-0.215,3.297-0.656 c3.223-1.335,5.323-4.479,5.323-7.967C342.436,125.382,316.582,93.839,307.452,84.64z M255.999,19.201 c5.525,4.214,10.464,9.023,14.762,14.301c-4.576,2.197-9.622,3.385-14.764,3.385c-5.137,0-10.181-1.188-14.759-3.385 C245.535,28.225,250.475,23.416,255.999,19.201z M187.558,170.557c2.255-25.023,9.182-42.836,15.162-54.014 c1.329-2.486,2.659-4.725,3.957-6.762c3.894,18.703,12.851,35.933,25.889,49.869C218.972,160.572,201.922,163.314,187.558,170.557 z M255.999,157.682c-21.569-16.453-34.281-41.923-34.281-69.24c-0.001-14.34,3.507-28.168,9.955-40.452 c7.432,3.994,15.801,6.143,24.324,6.143c8.529,0,16.898-2.149,24.328-6.143c6.448,12.285,9.956,26.112,9.956,40.452 C290.28,115.759,277.567,141.229,255.999,157.682z M279.431,159.652c13.038-13.936,21.995-31.166,25.89-49.869 c1.297,2.036,2.627,4.276,3.957,6.762c5.98,11.177,12.906,28.99,15.161,54.014C310.077,163.314,293.027,160.573,279.431,159.652z"/> </g> </g><g> <g> <path d="M255.999,60.848c-14.739,0-26.731,11.992-26.731,26.731s11.992,26.731,26.731,26.731 c14.739,0,26.731-11.991,26.731-26.731S270.738,60.848,255.999,60.848z M255.999,97.063c-5.23,0-9.484-4.254-9.484-9.484 s4.254-9.484,9.484-9.484c5.23,0,9.484,4.255,9.484,9.484S261.229,97.063,255.999,97.063z"/> </g> </g><g> <g> <path d="M455.523,245.347H431.97v-29.991c0-4.762-3.86-8.623-8.623-8.623H295.011v-9.689c0-4.762-3.86-8.623-8.623-8.623 s-8.623,3.861-8.623,8.623v88.902v29.516c0,4.762,3.86,8.623,8.623,8.623s8.623-3.861,8.623-8.623v-25.626 c5.269-4.136,11.722-6.386,18.504-6.386c16.186,0,29.673,13.163,30.061,29.344c0.062,2.542,1.242,4.929,3.226,6.519 c1.986,1.59,4.569,2.225,7.066,1.733c1.379-0.272,2.784-0.41,4.175-0.41c11.791,0,21.383,9.592,21.383,21.383 s-9.592,21.383-21.383,21.383c-4.69,0-9.141-1.491-12.874-4.312c-1.878-1.419-4.254-2.009-6.577-1.633 c-2.324,0.377-4.392,1.686-5.726,3.625c-4,5.815-10.592,9.286-17.63,9.286c-6.887,0-13.396-3.357-17.412-8.982 c-2.646-3.703-7.715-4.716-11.576-2.309c-3.38,2.106-7.28,3.218-11.278,3.218c-4.986,0-9.659-1.666-13.515-4.816 c-3.176-2.595-7.738-2.595-10.913,0c-3.856,3.15-8.529,4.816-13.516,4.816c-3.997,0-7.896-1.113-11.278-3.219 c-3.864-2.405-8.934-1.393-11.576,2.309c-4.015,5.625-10.524,8.982-17.412,8.982c-7.038,0-13.629-3.472-17.629-9.287 c-1.334-1.94-3.402-3.248-5.725-3.624c-2.326-0.378-4.7,0.213-6.578,1.632c-3.733,2.821-8.185,4.312-12.874,4.312 c-11.791,0-21.383-9.592-21.383-21.383s9.592-21.383,21.383-21.383c1.39,0,2.795,0.138,4.174,0.41 c2.498,0.492,5.081-0.143,7.065-1.733c1.986-1.591,3.165-3.976,3.227-6.519c0.391-16.18,13.875-29.344,30.061-29.344 c6.782,0,13.235,2.251,18.504,6.386v25.626c0,4.762,3.86,8.623,8.623,8.623s8.623-3.861,8.623-8.623v-29.516v-88.902 c0-4.762-3.86-8.623-8.623-8.623s-8.623,3.861-8.623,8.623v9.689H88.654c-4.763,0-8.623,3.861-8.623,8.623v29.991H56.476 c-4.763,0-8.623,3.861-8.623,8.623v249.407c0,4.762,3.86,8.623,8.623,8.623h399.047c4.763,0,8.623-3.861,8.623-8.623V253.97 C464.147,249.208,460.286,245.347,455.523,245.347z M247.376,494.755H65.099V262.594h14.932l0.001,213.429 c0,4.762,3.86,8.623,8.623,8.623h158.721V494.755z M97.278,467.4v-11.711h129.759c8.129,0,15.139,4.804,18.393,11.711H97.278z M247.377,444.432c-5.867-3.79-12.852-5.991-20.339-5.991H97.278l-0.001-214.463h119.71v0.001v45.975 c-5.78-2.459-12.048-3.75-18.504-3.75c-22.406,0-41.524,16.03-46.215,37.222c-20.521,0.886-36.94,17.858-36.94,38.593 c0,21.3,17.329,38.629,38.629,38.629c5.71,0,11.226-1.224,16.283-3.585c7.102,6.708,16.562,10.551,26.522,10.551 c9.938,0,19.435-3.863,26.55-10.587c4.358,1.657,9,2.516,13.715,2.516c3.516,0,6.997-0.498,10.35-1.433V444.432z M264.624,378.112 c3.353,0.935,6.833,1.433,10.349,1.433c4.715-0.002,9.358-0.86,13.715-2.517c7.114,6.724,16.61,10.587,26.549,10.587 c9.961,0,19.423-3.844,26.524-10.551c5.055,2.359,10.573,3.585,16.283,3.585c21.299,0,38.629-17.329,38.629-38.629 c0-20.735-16.421-37.706-36.94-38.593c-4.693-21.19-23.81-37.222-46.216-37.222c-6.456,0-12.723,1.291-18.504,3.75V223.98h119.711 v214.463H284.961c-7.491,0-14.471,2.212-20.338,6.004V378.112z M414.723,455.688v11.716h-148.18 c3.25-6.916,10.285-11.716,18.419-11.716H414.723z M446.9,494.753H264.622v-10.104h158.724c4.763,0,8.623-3.861,8.623-8.623 V262.594H446.9V494.753z"/> </g> </g><g> <g> <path d="M255.999,224.061c-4.763,0-8.623,3.861-8.623,8.623v53.261c0,4.762,3.86,8.623,8.623,8.623 c4.763,0,8.623-3.861,8.623-8.623v-53.261C264.622,227.922,260.763,224.061,255.999,224.061z"/> </g> </g></symbol><symbol id="startup" viewBox="0 0 511.999 511.999"><title>startup</title><g> <g> <circle cx="10.06" cy="500.446" r="10.06"/> </g> </g><g> <g> <circle cx="267.005" cy="245.308" r="10.04"/> </g> </g><g> <g> <path d="M398.479,118.032c-8.071-8.072-18.802-12.516-30.216-12.516c-11.414,0-22.146,4.446-30.216,12.516 c-16.661,16.662-16.661,43.772,0,60.433c8.332,8.331,19.272,12.495,30.216,12.495c10.941,0,21.886-4.166,30.216-12.495 C415.14,161.803,415.14,134.693,398.479,118.032z M384.282,164.266c-8.833,8.832-23.206,8.832-32.037,0 c-8.833-8.832-8.833-23.204,0-32.037c4.279-4.279,9.967-6.635,16.018-6.635c6.051,0,11.739,2.356,16.018,6.635 C393.114,141.062,393.114,155.434,384.282,164.266z"/> </g> </g><g> <g> <path d="M125.409,411.45c-4.964-2.472-10.99-0.451-13.462,4.512l-11.958,24.015c-5.2,10.441-15.658,17.423-27.296,18.219 l-13.908,0.952c-2.351,0.157-3.897-1.014-4.612-1.729s-1.889-2.264-1.729-4.613l0.952-13.907 c0.797-11.637,7.779-22.096,18.219-27.296l24.014-11.958c4.964-2.472,6.984-8.499,4.512-13.462 c-2.471-4.963-8.498-6.984-13.462-4.512l-24.014,11.958c-16.792,8.362-28.02,25.182-29.302,43.898l-0.952,13.907 c-0.514,7.507,2.242,14.863,7.562,20.183c4.898,4.898,11.523,7.624,18.403,7.624c0.591,0,1.186-0.02,1.78-0.061l13.908-0.952 c18.716-1.281,35.536-12.508,43.898-29.302l11.958-24.014C132.392,419.948,130.372,413.922,125.409,411.45z"/> </g> </g><g> <g> <path d="M505.07,8.18c-4.711-4.641-11.201-7.068-17.793-6.639l-9.348,0.596c-83.819,5.351-162.262,45.81-215.215,111.004 L240.71,140.23l-57.583-1.691c-0.098-0.003-0.197-0.004-0.294-0.004c-45.668,0-88.603,17.784-120.896,50.076L2.959,247.59 c-2.805,2.805-3.696,7-2.272,10.702c1.424,3.703,4.894,6.221,8.856,6.423l124.844,6.414l-5.09,6.267 c-2.565,3.159-2.971,7.553-1.026,11.127c1.956,3.596,4.006,7.135,6.144,10.617l-29.606,35.147 c-2.531,3.005-3.076,7.211-1.397,10.763c6.467,13.665,15.05,25.943,25.514,36.493c10.718,10.808,23.251,19.646,37.249,26.271 c1.368,0.648,2.835,0.965,4.293,0.965c2.261,0,4.503-0.764,6.327-2.243c6.378-5.174,13.731-11.311,20.843-17.245 c5.069-4.23,10.255-8.557,15.102-12.547c2.893,1.741,5.822,3.429,8.795,5.046c1.504,0.818,3.153,1.221,4.796,1.221 c2.186,0,4.358-0.712,6.156-2.108l6.843-5.31l6.442,125.37c0.204,3.962,2.721,7.432,6.423,8.856c1.172,0.45,2.39,0.67,3.6,0.67 c2.615,0,5.183-1.023,7.101-2.942l58.979-58.979c32.293-32.293,50.076-75.227,50.076-120.896v-54.995l23.267-18.055 c69.729-54.11,112.196-135.704,116.512-223.862l0.239-4.886C512.295,19.27,509.779,12.822,505.07,8.18z M33.123,245.822 l43.012-43.012c28.465-28.465,66.303-44.157,106.553-44.196l42.085,1.236l-74.71,91.98L33.123,245.822z M184.774,373.874 c-5.241,4.372-10.614,8.856-15.6,12.957c-9.644-5.223-18.368-11.74-25.992-19.428c-7.384-7.445-13.669-15.922-18.737-25.26 l21.676-25.733c6.554,8.793,13.728,17.122,21.478,24.925c0.006,0.006,0.012,0.011,0.018,0.017 c0.002,0.002,0.004,0.005,0.006,0.007c0.003,0.003,0.006,0.005,0.009,0.008c8.593,8.648,17.836,16.584,27.641,23.761 C191.811,368.002,188.264,370.962,184.774,373.874z M351.875,327.672c0,40.305-15.695,78.197-44.196,106.698l-43.012,43.012 l-6.002-116.792l93.209-72.33V327.672z M491.678,29.779c-4.029,82.297-43.673,158.467-108.767,208.98l-157.46,122.189 c-13.058-7.63-25.229-16.639-36.368-26.846l53.086-53.086c3.92-3.92,3.92-10.278,0-14.199c-3.921-3.921-10.278-3.921-14.199,0 l-53.036,53.036c-9.751-10.795-18.387-22.541-25.74-35.104L278.3,125.8C327.732,64.941,400.96,27.171,479.207,22.177l9.348-0.596 c1.225-0.076,2.045,0.532,2.423,0.904c0.377,0.371,1,1.178,0.94,2.409L491.678,29.779z"/> </g> </g></symbol><symbol id="flask" viewBox="0 0 512 512"><title>flask</title><g> <g> <circle cx="290.909" cy="23.273" r="23.273"/> </g> </g><g> <g> <circle cx="209.455" cy="104.727" r="23.273"/> </g> </g><g> <g> <circle cx="314.182" cy="93.091" r="11.636"/> </g> </g><g> <g> <circle cx="256" cy="69.818" r="11.636"/> </g> </g><g> <g> <circle cx="256" cy="407.273" r="11.636"/> </g> </g><g> <g> <circle cx="337.454" cy="407.273" r="11.636"/> </g> </g><g> <g> <circle cx="192" cy="413.091" r="5.818"/> </g> </g><g> <g> <circle cx="209.455" cy="465.455" r="11.636"/> </g> </g><g> <g> <circle cx="250.182" cy="448" r="5.818"/> </g> </g><g> <g> <circle cx="296.727" cy="424.727" r="5.818"/> </g> </g><g> <g> <circle cx="343.273" cy="448" r="5.818"/> </g> </g><g> <g> <circle cx="168.727" cy="459.636" r="5.818"/> </g> </g><g> <g> <path d="M423.564,451.491l-79.127-114.036c-11.636-17.455-18.618-38.4-18.618-59.345v-87.273c0-5.818,2.327-11.636,5.818-16.291 h5.818c6.982,0,11.636-4.655,11.636-11.636c0-6.982-4.655-11.636-11.636-11.636h-38.4c2.327-3.491,3.491-6.982,3.491-11.636 c0-12.8-10.473-23.273-23.273-23.273c-12.8,0-23.273,10.473-23.273,23.273c0,4.655,1.164,8.145,3.491,11.636h-84.945 c-6.982,0-11.636,4.655-11.636,11.636c0,6.982,4.655,11.636,11.636,11.636h130.327c-2.327,4.655-2.327,10.473-2.327,16.291v87.273 c0,25.6,8.145,51.2,23.273,73.309c-30.255-3.491-62.836,0-86.109,11.636c-17.455,8.145-43.055,11.636-67.491,9.309l13.964-20.945 c15.127-20.945,23.273-46.545,23.273-73.309v-68.655c0-6.982-4.655-11.636-11.636-11.636s-11.636,4.655-11.636,11.636v68.655 c0,20.945-6.982,41.891-18.618,59.345L88.436,451.491c-4.655,6.982-6.982,13.964-6.982,22.109c0,20.945,17.455,38.4,38.4,38.4 h272.291c20.945,0,38.4-17.455,38.4-38.4C430.545,465.455,428.218,458.473,423.564,451.491z M392.145,488.727H119.855 c-8.145,0-15.127-6.982-15.127-15.127c0-3.491,1.164-5.818,2.327-8.146l50.036-72.145c9.309,1.164,18.618,2.327,29.091,2.327 c23.273,0,45.382-4.655,62.836-12.8c25.6-12.8,65.164-13.964,95.418-3.491l59.345,86.109c1.164,2.327,2.327,5.818,2.327,8.146 C407.273,481.745,400.291,488.727,392.145,488.727z"/> </g> </g></symbol><symbol id="evaluation" viewBox="0 0 496 496"><title>evaluation</title><path d="M464,112.808v-36.12L387.312,0H160v112H40c-22.056,0-40,17.944-40,40v256c0,22.056,17.944,40,40,40h96v32h-32v16h288v-16 h-32v-32h96c22.056,0,40-17.944,40-40V152C496,132.688,482.232,116.528,464,112.808z M384,19.312L444.688,80H384V19.312z M176,16 h192v80h80v256H176V16z M344,480H152v-32h192V480z M480,408c0,13.232-10.768,24-24,24H40c-13.232,0-24-10.768-24-24v-8h464V408z M480,384H16V152c0-13.232,10.768-24,24-24h120v240h304V129.472c9.288,3.312,16,12.112,16,22.528V384z"/><path d="M144,200c0-30.872-25.128-56-56-56s-56,25.128-56,56s25.128,56,56,56S144,230.872,144,200z M96,184c0,4.416-3.584,8-8,8 s-8-3.584-8-8s3.584-8,8-8S96,179.584,96,184z M88,240c-5.56,0-10.856-1.152-15.672-3.216C73.816,229.504,80.28,224,88,224 c7.72,0,14.184,5.504,15.672,12.784C98.856,238.848,93.56,240,88,240z M88,208c-13.056,0-24.264,7.872-29.232,19.104 C52.144,219.96,48,210.48,48,200c0-20.4,15.408-37.096,35.168-39.512C72.24,162.728,64,172.424,64,184 C64,197.232,74.768,208,88,208s24-10.768,24-24c0-11.576-8.24-21.272-19.168-23.512C112.592,162.904,128,179.6,128,200 c0,10.48-4.144,19.96-10.768,27.104C112.264,215.872,101.056,208,88,208z"/><path d="M32,312c0,30.872,25.128,56,56,56s56-25.128,56-56s-25.128-56-56-56S32,281.128,32,312z M88,352 c-5.56,0-10.856-1.152-15.672-3.216C73.816,341.504,80.28,336,88,336c7.72,0,14.184,5.504,15.672,12.784 C98.856,350.848,93.56,352,88,352z M96,296c0,4.416-3.584,8-8,8s-8-3.584-8-8c0-4.416,3.584-8,8-8S96,291.584,96,296z M83.168,272.488C72.24,274.728,64,284.424,64,296c0,13.232,10.768,24,24,24s24-10.768,24-24c0-11.576-8.24-21.272-19.168-23.512 C112.592,274.904,128,291.6,128,312c0,10.48-4.144,19.96-10.768,27.104C112.264,327.872,101.056,320,88,320 c-13.056,0-24.264,7.872-29.232,19.104C52.144,331.96,48,322.48,48,312C48,291.6,63.408,274.904,83.168,272.488z"/><path d="M288,63.312V48h-80v80h80V82.968l28.648-20.464l-9.296-13.016L288,63.312z M272,74.744l-15.136,10.808l-11.208-11.208 l-11.312,11.312l20.792,20.792L272,94.4V112h-48V64h48V74.744z"/><path d="M288,159.312V144h-80v80h80v-45.032l28.648-20.464l-9.296-13.016L288,159.312z M272,170.744l-15.136,10.808 l-11.208-11.208l-11.312,11.312l20.792,20.792L272,190.4V208h-48v-48h48V170.744z"/><path d="M288,255.312V240h-80v80h80v-45.032l28.648-20.464l-9.296-13.008L288,255.312z M272,266.744l-15.136,10.808 l-11.208-11.208l-11.312,11.312l20.792,20.792L272,286.4V304h-48v-48h48V266.744z"/><rect x="320" y="112" width="96" height="16"/><rect x="320" y="208" width="96" height="16"/><rect x="320" y="304" width="96" height="16"/><rect x="320" y="272" width="96" height="16"/><rect x="320" y="176" width="96" height="16"/><rect x="320" y="80" width="32" height="16"/></symbol><symbol id="flasks" viewBox="0 0 470.03 470.03"><title>flasks</title><path d="m377.53,189.821v-114.948c11.234-1.248 20-10.796 20-22.358 0-12.407-10.093-22.5-22.5-22.5h-100c-12.407,0-22.5,10.093-22.5,22.5 0,11.561 8.766,21.11 20,22.358v114.95c-22.675,8.812-42.852,23.265-58.606,42.033-2.664,3.173-2.25,7.903 0.922,10.566 1.406,1.18 3.117,1.756 4.818,1.756 2.14,0 4.265-0.911 5.748-2.678 15.171-18.073 34.906-31.682 57.072-39.356 3.021-1.046 5.046-3.891 5.046-7.087v-120.042h42.5c4.142,0 7.5-3.358 7.5-7.5s-3.358-7.5-7.5-7.5h-55c-4.136,0-7.5-3.364-7.5-7.5s3.364-7.5 7.5-7.5h100c4.136,0 7.5,3.364 7.5,7.5s-3.364,7.5-7.5,7.5h-15c-4.142,0-7.5,3.358-7.5,7.5s3.358,7.5 7.5,7.5h2.5v120.041c0,3.196 2.026,6.042 5.046,7.087 52.309,18.11 87.454,67.488 87.454,122.871 0,71.682-58.318,130-130,130-16.899,0-33.349-3.202-48.892-9.516-3.836-1.56-8.212,0.288-9.771,4.125-1.559,3.837 0.289,8.212 4.126,9.771 17.345,7.046 35.693,10.619 54.537,10.619 79.953,0 145-65.047 145-145 5.68434e-14-59.971-36.952-113.631-92.5-135.192z"/><circle cx="380.923" cy="351.39" r="7.5"/><circle cx="350.923" cy="381.39" r="7.5"/><path d="m282.67,415.62c-3.749-1.755-8.215-0.14-9.973,3.611-1.757,3.751-0.14,8.216 3.611,9.973 15.316,7.174 31.708,10.812 48.722,10.812 63.411,0 115-51.589 115-115 0-20.213-5.323-40.098-15.394-57.506-1.528-2.641-4.501-4.096-7.525-3.672l-2.73,.38c-0.342,0.047-0.682,0.119-1.014,0.213-11.338,3.218-17.453,8.129-22.366,12.075-5.443,4.372-9.04,7.26-19.416,7.26-8.861,0-12.859-3.435-18.393-8.189-6.125-5.262-13.748-11.811-28.167-11.811-14.418,0-22.04,6.549-28.165,11.812-5.533,4.754-9.53,8.188-18.389,8.188-10.375,0-13.97-2.888-19.413-7.26-4.913-3.946-11.027-8.857-22.363-12.075-0.333-0.095-0.672-0.166-1.015-0.213l-2.73-.38c-3.018-0.423-5.984,1.024-7.515,3.655-0.065,0.111-0.128,0.224-0.197,0.352-2.064,3.591-0.826,8.176 2.765,10.24 1.56,0.896 3.306,1.17 4.953,0.898l.125,.018c8.09,2.378 12.219,5.694 16.584,9.201 6.466,5.194 13.153,10.565 28.806,10.565 14.418,0 22.04-6.549 28.165-11.812 5.533-4.754 9.53-8.188 18.389-8.188 8.861,0 12.859,3.435 18.393,8.189 6.125,5.262 13.748,11.811 28.167,11.811 15.654,0 22.341-5.371 28.809-10.564 3.853-3.095 7.52-6.04 13.89-8.325 7.045,13.921 10.747,29.414 10.747,45.139 0,55.14-44.86,100-100,100-14.799-0.002-29.051-3.163-42.361-9.397z"/><path d="m181.03,193.796v-148.923c11.234-1.248 20-10.796 20-22.358 0-12.407-10.093-22.5-22.5-22.5h-100c-12.407,0-22.5,10.093-22.5,22.5 0,11.561 8.766,21.11 20,22.358v120.184c0,4.142 3.358,7.5 7.5,7.5s7.5-3.358 7.5-7.5v-120.042h42.5c4.142,0 7.5-3.358 7.5-7.5s-3.358-7.5-7.5-7.5h-55c-4.136,0-7.5-3.364-7.5-7.5s3.364-7.5 7.5-7.5h100c4.136,0 7.5,3.364 7.5,7.5s-3.364,7.5-7.5,7.5h-15c-4.142,0-7.5,3.358-7.5,7.5s3.358,7.5 7.5,7.5h2.5v150.042c0,0.834 0.139,1.663 0.412,2.451l72.889,210.754c4.402,12.728 3.409,24.535-2.795,33.246-6.205,8.71-17.038,13.508-30.505,13.508h-155c-13.467,0-24.301-4.797-30.506-13.508-6.204-8.711-7.197-20.518-2.795-33.245l72.889-210.753c1.354-3.915-0.722-8.186-4.636-9.54-3.914-1.353-8.186,0.722-9.54,4.636l-72.89,210.753c-6.032,17.439-4.343,34.078 4.754,46.85 9.097,12.772 24.27,19.806 42.723,19.806h155c18.453,0 33.626-7.034 42.723-19.806 9.097-12.772 10.786-29.411 4.754-46.85l-72.477-209.563z"/><path d="m64.652,348.792c-1.91-1.481-4.419-1.953-6.734-1.263-2.317,0.689-4.161,2.453-4.951,4.738l-21.062,60.899c-2.772,8.016-2.475,14.991 0.837,19.64 3.312,4.649 9.806,7.21 18.288,7.21h155c8.481,0 14.976-2.561 18.287-7.21 3.313-4.649 3.61-11.625 0.837-19.64l-21.063-60.901c-0.79-2.285-2.633-4.048-4.95-4.737-2.317-0.69-4.825-0.219-6.734,1.263-4.091,3.173-7.964,5.601-17.323,5.601-8.86,0-12.859-3.435-18.393-8.189-6.125-5.262-13.748-11.811-28.167-11.811-14.418,0-22.04,6.549-28.165,11.812-5.533,4.754-9.53,8.188-18.39,8.188-9.356-0.002-13.228-2.428-17.317-5.6zm45.483,8.787c5.533-4.754 9.53-8.188 18.389-8.188 8.861,0 12.859,3.435 18.393,8.189 6.125,5.262 13.748,11.811 28.167,11.811 7.84,0 13.484-1.404 17.89-3.379l18.004,52.057c1.064,3.077 1.123,5.092 1.018,5.961-0.787,0.383-2.71,0.986-5.966,0.986h-155c-3.256,0-5.179-0.603-5.966-0.986-0.105-0.869-0.046-2.884 1.018-5.961l18.003-52.055c4.404,1.975 10.047,3.378 17.885,3.378 14.419-0.002 22.041-6.551 28.165-11.813z"/></symbol><symbol id="idea" viewBox="0 0 295.238 295.238"><title>idea</title><path d="M277.462,0.09l-27.681,20.72l-27.838,64.905h-22.386l-8.79-19.048h5.743c10.505,0,19.048-8.452,19.048-18.957V28.571 h9.524V0H196.51v28.571h9.524V47.71c0,5.248-4.271,9.433-9.524,9.433h-10.138L174.2,30.81l14.581-7.267L141.038,3.095 l-11.224,39.281c-0.305-23.371-19.386-42.29-42.829-42.29c-23.633,0-42.857,19.224-42.857,42.857 c0,14.281,7.233,27.676,19.048,35.595v7.176H51.643L50.9,89.619c-2.314,12.005-2.529,24.343-0.638,36.648l-32.486,57.905 l35.876,8.195v60.014h47.619v42.857h114.286v-66.357c33.333-23.581,52.371-61.495,52.343-101.943l0.01-17.371 c0-6.548-0.605-13.276-1.824-19.905l-0.705-3.948h-9.348l21.429-51.338V0.09z M206.033,19.138V9.614h9.524v9.524H206.033z M189.067,85.714h-18.062l-8.657-19.048h17.929L189.067,85.714z M147.219,16.119l18.929,8.11l-4.467,2.19l14.2,30.724h-17.862 l-11.605-25.471l-4.262,2.152L147.219,16.119z M160.543,85.715h-21.176v-9.433c0-5.252,4.271-9.614,9.524-9.614h2.995v-0.001 L160.543,85.715z M141.843,44.652l5.776,12.71c-9.905,0.667-17.776,8.848-17.776,18.919v9.433h-19.048v-7.176 c9.529-6.386,15.995-16.352,18.176-27.452L141.843,44.652z M53.653,42.948c0-18.376,14.957-33.333,33.333-33.333 c18.376,0,33.333,14.957,33.333,33.333c0,11.829-6.39,22.881-16.671,28.838l-2.376,1.371v12.557h-9.524V56.352 c5.529-1.971,9.524-7.21,9.524-13.41c0-7.876-6.41-14.286-14.286-14.286c-7.876,0-14.286,6.411-14.286,14.287 c0,6.2,3.995,11.438,9.524,13.41v29.362H72.7V73.157l-2.376-1.376C60.043,65.824,53.653,54.776,53.653,42.948z M86.986,47.71 c-2.629,0-4.762-2.139-4.762-4.762c0-2.629,2.133-4.762,4.762-4.762c2.629,0,4.762,2.133,4.762,4.762S89.615,47.71,86.986,47.71z M257.366,95.239c0.691,4.761,1.039,9.59,1.039,14.285l0.01,17.405c0.029,38.148-18.795,73.871-50.286,95.552l-2.095,1.429 v61.805h-95.238v-42.857h-47.62v-58.086l-30.862-7.043l27.876-49.7l-0.271-1.7c-1.771-10.419-1.871-21.567-0.333-31.09h3.59 h47.619H257.366z M245.714,85.714H232.3l23.738-55.343l10.557,5.257L245.714,85.714z M267.938,25.714l-5.267-2.633l5.267-3.943 V25.714z"/><path d="M96.51,123.81c-7.876,0-14.286-4.762-14.286-14.286H72.7c0,14.286,10.681,23.81,23.81,23.81 c13.129,0,23.81-9.524,23.81-23.81h-9.524C110.795,119.048,104.386,123.81,96.51,123.81z"/></symbol><symbol id="sketch" viewBox="0 0 511.999 511.999"><title>sketch</title><g> <g> <path d="M453.034,361.322c-2.808-1.164-6.04-0.521-8.19,1.628l-82.126,82.126c-2.149,2.15-2.792,5.382-1.628,8.19 c1.162,2.809,3.904,4.639,6.943,4.639h82.126c4.151,0,7.515-3.364,7.515-7.515v-82.126 C457.673,365.225,455.842,362.485,453.034,361.322z M386.173,442.876l56.469-56.469v56.469H386.173z"/> </g> </g><g> <g> <path d="M507.361,240.867c-2.808-1.164-6.04-0.521-8.19,1.628l-22.507,22.507V111.971c0-4.151-3.365-7.515-7.515-7.515h-57.741 l20.96-20.96c0.003-0.003,0.006-0.007,0.009-0.01l20.196-20.196c4.327-4.327,6.71-10.083,6.71-16.203s-2.383-11.874-6.71-16.203 L429.219,7.53c-4.327-4.327-10.083-6.71-16.203-6.71s-11.875,2.383-16.203,6.71l-20.206,20.206l-24.416,24.416l-52.303,52.303 H66.62V30.11c0-4.151-3.365-7.515-7.515-7.515C26.515,22.597,0,49.11,0,81.702v319.186c0,0.555,0.064,1.095,0.178,1.615 c1.038,13.829,7.021,26.678,17.02,36.432C27.886,449.359,41.995,455.1,56.927,455.1h229.638l-43.249,43.249 c-2.149,2.15-2.792,5.381-1.629,8.19c1.163,2.808,3.904,4.639,6.943,4.639h255.855c4.15,0,7.515-3.364,7.515-7.515V247.81 C512,244.771,510.168,242.03,507.361,240.867z M407.443,18.159c3.072-3.074,8.077-3.074,11.149,0l23.355,23.355 c3.074,3.073,3.074,8.076,0,11.15l-14.891,14.892L392.55,33.051L407.443,18.159z M381.922,43.679l34.505,34.504l-13.789,13.789 l-34.503-34.504L381.922,43.679z M496.972,332.252h-13.865c-4.151,0-7.515,3.364-7.515,7.515c0,4.151,3.364,7.515,7.515,7.515 h13.865v22.646h-13.865c-4.151,0-7.515,3.364-7.515,7.515s3.364,7.515,7.515,7.515h13.865v22.645h-13.865 c-4.151,0-7.515,3.364-7.515,7.515c0,4.151,3.364,7.515,7.515,7.515h13.865v22.646h-13.865c-4.151,0-7.515,3.365-7.515,7.515 c0,4.151,3.364,7.515,7.515,7.515h13.865v35.842h-230.2l75.908-75.907c2.935-2.936,2.935-7.693,0-10.628 c-0.337-0.337-0.699-0.629-1.078-0.889c-2.926-2.004-6.952-1.709-9.551,0.889l-30.456,30.456H56.928 c-22.792,0-41.14-17.794-41.862-40.545c0.043-1.428,0.154-2.844,0.332-4.244c0.001-0.008,0.002-0.016,0.003-0.024 c0.084-0.665,0.185-1.327,0.3-1.985c0.013-0.075,0.027-0.15,0.04-0.225c0.105-0.587,0.223-1.171,0.352-1.753 c0.036-0.162,0.074-0.324,0.112-0.485c0.114-0.492,0.237-0.981,0.369-1.468c0.072-0.264,0.147-0.525,0.224-0.788 c0.11-0.382,0.224-0.763,0.345-1.14c0.121-0.377,0.25-0.75,0.381-1.123c0.091-0.261,0.181-0.522,0.279-0.781 c0.183-0.492,0.377-0.979,0.577-1.462c0.057-0.139,0.113-0.28,0.172-0.419c0.257-0.6,0.524-1.193,0.806-1.779 c0.012-0.025,0.023-0.05,0.035-0.075c5.878-12.164,17.183-21.233,30.75-24.047c0.038-0.008,0.076-0.017,0.114-0.025 c0.622-0.127,1.25-0.236,1.882-0.337c0.105-0.017,0.21-0.038,0.317-0.054c0.571-0.087,1.148-0.155,1.725-0.22 c0.162-0.018,0.323-0.043,0.486-0.059c0.557-0.056,1.119-0.093,1.681-0.128c0.178-0.011,0.356-0.03,0.534-0.039 c0.736-0.037,1.478-0.056,2.223-0.056c4.15,0,7.515-3.364,7.515-7.515v-54.489c0-4.151-3.365-7.515-7.515-7.515 c-4.15,0-7.515,3.364-7.515,7.515v47.447c-12.69,1.605-24.469,7.265-33.757,16.335c-0.977,0.954-1.903,1.946-2.805,2.954V81.702 c0-21.741,15.826-39.858,36.561-43.436v73.705v152.777v0.001c0,4.15,3.365,7.515,7.515,7.515c4.15,0,7.515-3.365,7.515-7.515 v-0.001V119.486h218.24l-41.544,41.544c-2.935,2.936-2.935,7.693,0,10.628c2.935,2.934,7.693,2.934,10.627,0l54.373-54.373 c0.002-0.002,0.003-0.004,0.005-0.005l49.185-49.185l34.503,34.505l-4.048,4.048c-0.003,0.003-0.007,0.006-0.01,0.009 l-151.528,151.53l-34.504-34.504l29.868-29.868c2.935-2.936,2.935-7.693,0-10.628c-2.935-2.934-7.693-2.934-10.627,0 l-35.183,35.182c-0.188,0.188-0.364,0.387-0.529,0.591c-0.055,0.068-0.104,0.141-0.156,0.212c-0.106,0.141-0.21,0.283-0.307,0.431 c-0.055,0.086-0.105,0.174-0.157,0.263c-0.083,0.14-0.163,0.282-0.236,0.427c-0.048,0.094-0.091,0.189-0.135,0.287 c-0.067,0.147-0.129,0.297-0.186,0.447c-0.02,0.053-0.046,0.103-0.065,0.156l-14.641,41.475l-9.982,28.279 c-0.132,0.376-0.227,0.758-0.298,1.143h-24.992c-4.15,0-7.515,3.364-7.515,7.515c0,4.151,3.365,7.515,7.515,7.515h208.114 c4.151,0,7.515-3.364,7.515-7.515c0-4.151-3.364-7.515-7.515-7.515H193.093l45.83-16.178c0.038-0.014,0.074-0.033,0.112-0.047 c0.178-0.066,0.353-0.14,0.526-0.219c0.069-0.032,0.138-0.062,0.205-0.095c0.18-0.09,0.357-0.189,0.531-0.295 c0.056-0.034,0.114-0.065,0.169-0.1c0.181-0.116,0.357-0.243,0.53-0.377c0.043-0.033,0.088-0.062,0.13-0.096 c0.209-0.168,0.414-0.349,0.608-0.543l154.644-154.643h65.255v160.546L354.137,387.53c-2.935,2.936-2.935,7.693,0,10.628 c0.183,0.183,0.374,0.355,0.571,0.516c1.378,1.123,3.061,1.685,4.743,1.685s3.366-0.562,4.743-1.685 c0.197-0.16,0.388-0.333,0.571-0.516c0.003-0.003,0,0,0.003-0.003L496.972,265.95V332.252z M222.677,265.696l-21.526,7.599 l-14.342-14.342l7.599-21.526L222.677,265.696z"/> </g> </g></symbol></svg>